<svg xmlns="http://www.w3.org/2000/svg" width="256" height="256" viewBox="0 0 256 256" fill="none">
  <defs>
    <linearGradient id="bg" x1="32" y1="24" x2="224" y2="232" gradientUnits="userSpaceOnUse">
      <stop stop-color="#1EE38A" />
      <stop offset="1" stop-color="#0EA5E9" />
    </linearGradient>
    <linearGradient id="glyph" x1="72" y1="70" x2="186" y2="182" gradientUnits="userSpaceOnUse">
      <stop stop-color="#E6FFF5" />
      <stop offset="1" stop-color="#F8FAFC" />
    </linearGradient>
  </defs>
  <rect x="16" y="16" width="224" height="224" rx="52" fill="#040913" />
  <rect x="26" y="26" width="204" height="204" rx="44" fill="url(#bg)" fill-opacity=".2" />
  <path d="M78 70h100c4.4 0 8 3.6 8 8v18c0 4.4-3.6 8-8 8h-31v80c0 4.4-3.6 8-8 8h-22c-4.4 0-8-3.6-8-8v-80H78c-4.4 0-8-3.6-8-8V78c0-4.4 3.6-8 8-8Z" fill="url(#glyph)" />
  <circle cx="182" cy="182" r="18" fill="#1EE38A" />
  <path d="m174.5 182 5.5 5.5 11.5-11.5" stroke="#03150D" stroke-width="4.5" stroke-linecap="round" stroke-linejoin="round" />
</svg>
